<svg width="250" height="244" viewBox="0 0 250 244" fill="none" xmlns="http://www.w3.org/2000/svg">
<g filter="url(#filter0_d_15_3)">
<path d="M246 0L229.219 4.28867L241.324 16.6772L246 0ZM6 234.5L7.0483 235.573L9.19115 233.479L8.14286 232.406L7.09456 231.333L4.9517 233.427L6 234.5ZM12.4286 228.219L13.4769 229.292L17.7626 225.104L16.7143 224.031L15.666 222.958L11.3803 227.146L12.4286 228.219ZM21 219.844L22.0483 220.917L26.334 216.729L25.2857 215.656L24.2374 214.583L19.9517 218.771L21 219.844ZM29.5714 211.469L30.6197 212.542L34.9054 208.354L33.8571 207.281L32.8088 206.208L28.5231 210.396L29.5714 211.469ZM38.1429 203.094L39.1912 204.167L43.4769 199.979L42.4286 198.906L41.3803 197.833L37.0946 202.021L38.1429 203.094ZM46.7143 194.719L47.7626 195.792L52.0483 191.604L51 190.531L49.9517 189.458L45.666 193.646L46.7143 194.719ZM55.2857 186.344L56.334 187.417L60.6197 183.229L59.5714 182.156L58.5231 181.083L54.2374 185.271L55.2857 186.344ZM63.8571 177.969L64.9054 179.042L69.1912 174.854L68.1429 173.781L67.0946 172.708L62.8088 176.896L63.8571 177.969ZM72.4286 169.594L73.4769 170.667L77.7626 166.479L76.7143 165.406L75.666 164.333L71.3803 168.521L72.4286 169.594ZM81 161.219L82.0483 162.292L86.334 158.104L85.2857 157.031L84.2374 155.958L79.9517 160.146L81 161.219ZM89.5714 152.844L90.6197 153.917L94.9054 149.729L93.8571 148.656L92.8088 147.583L88.5231 151.771L89.5714 152.844ZM98.1428 144.469L99.1911 145.542L103.477 141.354L102.429 140.281L101.38 139.208L97.0945 143.396L98.1428 144.469ZM106.714 136.094L107.763 137.167L112.048 132.979L111 131.906L109.952 130.833L105.666 135.021L106.714 136.094ZM115.286 127.719L116.334 128.792L120.62 124.604L119.571 123.531L118.523 122.458L114.237 126.646L115.286 127.719ZM123.857 119.344L124.905 120.417L129.191 116.229L128.143 115.156L127.095 114.083L122.809 118.271L123.857 119.344ZM132.429 110.969L133.477 112.042L137.763 107.854L136.714 106.781L135.666 105.708L131.38 109.896L132.429 110.969ZM141 102.594L142.048 103.667L146.334 99.4792L145.286 98.4063L144.237 97.3334L139.952 101.521L141 102.594ZM149.571 94.2188L150.62 95.2917L154.905 91.1042L153.857 90.0313L152.809 88.9584L148.523 93.1459L149.571 94.2188ZM158.143 85.8438L159.191 86.9167L163.477 82.7292L162.429 81.6563L161.38 80.5834L157.095 84.7709L158.143 85.8438ZM166.714 77.4688L167.763 78.5417L172.048 74.3542L171 73.2813L169.952 72.2084L165.666 76.3959L166.714 77.4688ZM175.286 69.0938L176.334 70.1667L180.62 65.9792L179.571 64.9063L178.523 63.8334L174.237 68.0209L175.286 69.0938ZM183.857 60.7188L184.905 61.7917L189.191 57.6042L188.143 56.5313L187.095 55.4584L182.809 59.6459L183.857 60.7188ZM192.429 52.3438L193.477 53.4167L197.763 49.2292L196.714 48.1563L195.666 47.0834L191.38 51.2709L192.429 52.3438ZM201 43.9688L202.048 45.0417L206.334 40.8541L205.286 39.7813L204.237 38.7084L199.952 42.8959L201 43.9688ZM209.571 35.5938L210.62 36.6666L214.905 32.4791L213.857 31.4063L212.809 30.3334L208.523 34.5209L209.571 35.5938ZM218.143 27.2187L219.191 28.2916L223.477 24.1041L222.429 23.0312L221.38 21.9583L217.095 26.1459L218.143 27.2187ZM226.714 18.8437L227.763 19.9166L232.048 15.7291L231 14.6562L229.952 13.5833L225.666 17.7708L226.714 18.8437ZM235.286 10.4687L236.334 11.5416L240.62 7.35408L239.571 6.2812L238.523 5.20832L234.237 9.39583L235.286 10.4687Z" fill="#FF555E"/>
</g>
<defs>
<filter id="filter0_d_15_3" x="0.951691" y="0" width="249.048" height="243.573" filterUnits="userSpaceOnUse" color-interpolation-filters="sRGB">
<feFlood flood-opacity="0" result="BackgroundImageFix"/>
<feColorMatrix in="SourceAlpha" type="matrix" values="0 0 0 0 0 0 0 0 0 0 0 0 0 0 0 0 0 0 127 0" result="hardAlpha"/>
<feOffset dy="4"/>
<feGaussianBlur stdDeviation="2"/>
<feComposite in2="hardAlpha" operator="out"/>
<feColorMatrix type="matrix" values="0 0 0 0 0 0 0 0 0 0 0 0 0 0 0 0 0 0 0.25 0"/>
<feBlend mode="normal" in2="BackgroundImageFix" result="effect1_dropShadow_15_3"/>
<feBlend mode="normal" in="SourceGraphic" in2="effect1_dropShadow_15_3" result="shape"/>
</filter>
</defs>
</svg>
