<svg width="141" height="74" viewBox="0 0 141 74" fill="none" xmlns="http://www.w3.org/2000/svg">
<g id="callout-persona">
<rect id="Rounded rectangle" x="1" y="1" width="93" height="34" rx="17" fill="white" stroke="#3257C9" stroke-width="2"/>
<path id="Persona" d="M12.9 19.6V17.96H16.68C17.2 17.96 17.66 17.8533 18.06 17.64C18.4733 17.4267 18.7933 17.1267 19.02 16.74C19.26 16.3533 19.38 15.8933 19.38 15.36C19.38 14.8267 19.26 14.3667 19.02 13.98C18.7933 13.5933 18.4733 13.2933 18.06 13.08C17.66 12.8667 17.2 12.76 16.68 12.76H12.9V11.12H16.8C17.6533 11.12 18.4133 11.2933 19.08 11.64C19.76 11.9867 20.2933 12.48 20.68 13.12C21.08 13.7467 21.28 14.4933 21.28 15.36C21.28 16.2133 21.08 16.96 20.68 17.6C20.2933 18.2267 19.76 18.72 19.08 19.08C18.4133 19.4267 17.6533 19.6 16.8 19.6H12.9ZM11.64 25V11.12H13.52V25H11.64ZM27.302 25.2C26.3554 25.2 25.502 24.9867 24.742 24.56C23.982 24.12 23.382 23.5267 22.942 22.78C22.502 22.0333 22.282 21.1867 22.282 20.24C22.282 19.3067 22.4954 18.4667 22.922 17.72C23.362 16.9733 23.9487 16.3867 24.682 15.96C25.4287 15.52 26.262 15.3 27.182 15.3C28.062 15.3 28.8354 15.5 29.502 15.9C30.182 16.3 30.7087 16.8533 31.082 17.56C31.4687 18.2667 31.662 19.0667 31.662 19.96C31.662 20.0933 31.6554 20.24 31.642 20.4C31.6287 20.5467 31.602 20.72 31.562 20.92H23.542V19.42H30.602L29.942 20C29.942 19.36 29.8287 18.82 29.602 18.38C29.3754 17.9267 29.0554 17.58 28.642 17.34C28.2287 17.0867 27.7287 16.96 27.142 16.96C26.5287 16.96 25.9887 17.0933 25.522 17.36C25.0554 17.6267 24.6954 18 24.442 18.48C24.1887 18.96 24.062 19.5267 24.062 20.18C24.062 20.8467 24.1954 21.4333 24.462 21.94C24.7287 22.4333 25.1087 22.82 25.602 23.1C26.0954 23.3667 26.662 23.5 27.302 23.5C27.8354 23.5 28.322 23.4067 28.762 23.22C29.2154 23.0333 29.602 22.7533 29.922 22.38L31.082 23.56C30.6287 24.0933 30.0687 24.5 29.402 24.78C28.7487 25.06 28.0487 25.2 27.302 25.2ZM33.6247 25V15.5H35.4247V25H33.6247ZM35.4247 19.58L34.7447 19.28C34.7447 18.0667 35.0247 17.1 35.5847 16.38C36.1447 15.66 36.9514 15.3 38.0047 15.3C38.4847 15.3 38.918 15.3867 39.3047 15.56C39.6914 15.72 40.0514 15.9933 40.3847 16.38L39.2047 17.6C39.0047 17.3867 38.7847 17.2333 38.5447 17.14C38.3047 17.0467 38.0247 17 37.7047 17C37.038 17 36.4914 17.2133 36.0647 17.64C35.638 18.0667 35.4247 18.7133 35.4247 19.58ZM44.4572 25.2C43.9239 25.2 43.4172 25.1333 42.9372 25C42.4705 24.8533 42.0372 24.6533 41.6372 24.4C41.2372 24.1333 40.8905 23.82 40.5972 23.46L41.7572 22.3C42.1039 22.7267 42.5039 23.0467 42.9572 23.26C43.4105 23.46 43.9172 23.56 44.4772 23.56C45.0372 23.56 45.4705 23.4667 45.7772 23.28C46.0839 23.08 46.2372 22.8067 46.2372 22.46C46.2372 22.1133 46.1105 21.8467 45.8572 21.66C45.6172 21.46 45.3039 21.3 44.9172 21.18C44.5305 21.0467 44.1172 20.92 43.6772 20.8C43.2505 20.6667 42.8439 20.5 42.4572 20.3C42.0705 20.1 41.7505 19.8267 41.4972 19.48C41.2572 19.1333 41.1372 18.6733 41.1372 18.1C41.1372 17.5267 41.2772 17.0333 41.5572 16.62C41.8372 16.1933 42.2239 15.8667 42.7172 15.64C43.2239 15.4133 43.8305 15.3 44.5372 15.3C45.2839 15.3 45.9439 15.4333 46.5172 15.7C47.1039 15.9533 47.5839 16.34 47.9572 16.86L46.7972 18.02C46.5305 17.6733 46.1972 17.4067 45.7972 17.22C45.4105 17.0333 44.9705 16.94 44.4772 16.94C43.9572 16.94 43.5572 17.0333 43.2772 17.22C43.0105 17.3933 42.8772 17.64 42.8772 17.96C42.8772 18.28 42.9972 18.5267 43.2372 18.7C43.4772 18.8733 43.7905 19.02 44.1772 19.14C44.5772 19.26 44.9905 19.3867 45.4172 19.52C45.8439 19.64 46.2505 19.8067 46.6372 20.02C47.0239 20.2333 47.3372 20.52 47.5772 20.88C47.8305 21.24 47.9572 21.7133 47.9572 22.3C47.9572 23.1933 47.6372 23.9 46.9972 24.42C46.3705 24.94 45.5239 25.2 44.4572 25.2ZM54.3123 25.2C53.379 25.2 52.539 24.98 51.7923 24.54C51.0457 24.1 50.4523 23.5067 50.0123 22.76C49.5723 22 49.3523 21.1533 49.3523 20.22C49.3523 19.3 49.5723 18.4733 50.0123 17.74C50.4523 16.9933 51.0457 16.4 51.7923 15.96C52.539 15.52 53.379 15.3 54.3123 15.3C55.2323 15.3 56.0657 15.52 56.8123 15.96C57.5723 16.3867 58.1723 16.9733 58.6123 17.72C59.0523 18.4667 59.2723 19.3 59.2723 20.22C59.2723 21.1533 59.0523 22 58.6123 22.76C58.1723 23.5067 57.5723 24.1 56.8123 24.54C56.0657 24.98 55.2323 25.2 54.3123 25.2ZM54.3123 23.46C54.9123 23.46 55.4457 23.32 55.9123 23.04C56.379 22.76 56.7457 22.38 57.0123 21.9C57.279 21.4067 57.4123 20.8467 57.4123 20.22C57.4123 19.6067 57.2723 19.06 56.9923 18.58C56.7257 18.1 56.359 17.7267 55.8923 17.46C55.439 17.18 54.9123 17.04 54.3123 17.04C53.7123 17.04 53.179 17.18 52.7123 17.46C52.2457 17.7267 51.879 18.1 51.6123 18.58C51.3457 19.06 51.2123 19.6067 51.2123 20.22C51.2123 20.8467 51.3457 21.4067 51.6123 21.9C51.879 22.38 52.2457 22.76 52.7123 23.04C53.179 23.32 53.7123 23.46 54.3123 23.46ZM68.0205 25V19.46C68.0205 18.74 67.7938 18.1467 67.3405 17.68C66.8871 17.2133 66.3005 16.98 65.5805 16.98C65.1005 16.98 64.6738 17.0867 64.3005 17.3C63.9271 17.5133 63.6338 17.8067 63.4205 18.18C63.2071 18.5533 63.1005 18.98 63.1005 19.46L62.3605 19.04C62.3605 18.32 62.5205 17.68 62.8405 17.12C63.1605 16.56 63.6071 16.12 64.1805 15.8C64.7538 15.4667 65.4005 15.3 66.1205 15.3C66.8405 15.3 67.4738 15.48 68.0205 15.84C68.5805 16.2 69.0205 16.6733 69.3405 17.26C69.6605 17.8333 69.8205 18.4467 69.8205 19.1V25H68.0205ZM61.3005 25V15.5H63.1005V25H61.3005ZM76.2975 25.2C75.4308 25.2 74.6442 24.9867 73.9375 24.56C73.2308 24.12 72.6708 23.5267 72.2575 22.78C71.8575 22.0333 71.6575 21.1933 71.6575 20.26C71.6575 19.3267 71.8575 18.4867 72.2575 17.74C72.6708 16.9933 73.2242 16.4 73.9175 15.96C74.6242 15.52 75.4175 15.3 76.2975 15.3C77.0175 15.3 77.6575 15.4533 78.2175 15.76C78.7908 16.0533 79.2508 16.4667 79.5975 17C79.9442 17.52 80.1375 18.1267 80.1775 18.82V21.68C80.1375 22.36 79.9442 22.9667 79.5975 23.5C79.2642 24.0333 78.8108 24.4533 78.2375 24.76C77.6775 25.0533 77.0308 25.2 76.2975 25.2ZM76.5975 23.5C77.4908 23.5 78.2108 23.2 78.7575 22.6C79.3042 21.9867 79.5775 21.2067 79.5775 20.26C79.5775 19.6067 79.4508 19.04 79.1975 18.56C78.9575 18.0667 78.6108 17.6867 78.1575 17.42C77.7042 17.14 77.1775 17 76.5775 17C75.9775 17 75.4442 17.14 74.9775 17.42C74.5242 17.7 74.1642 18.0867 73.8975 18.58C73.6442 19.06 73.5175 19.6133 73.5175 20.24C73.5175 20.88 73.6442 21.4467 73.8975 21.94C74.1642 22.42 74.5308 22.8 74.9975 23.08C75.4642 23.36 75.9975 23.5 76.5975 23.5ZM79.4575 25V22.44L79.7975 20.12L79.4575 17.82V15.5H81.2775V25H79.4575Z" fill="#3257C9"/>
<path id="Vector 1" d="M130.645 73.5188C130.932 73.9909 131.547 74.1414 132.019 73.8549L139.713 69.1858C140.185 68.8993 140.336 68.2843 140.049 67.8121C139.763 67.34 139.147 67.1895 138.675 67.476L131.836 71.6263L127.686 64.7871C127.399 64.3149 126.784 64.1644 126.312 64.451C125.84 64.7375 125.689 65.3525 125.976 65.8247L130.645 73.5188ZM94.5 16.5L94.3078 17.4814C102.24 19.0351 113.579 23.6811 121.78 32.5177C129.931 41.3013 135.048 54.2901 130.529 72.7623L131.5 73L132.471 73.2377C137.152 54.11 131.853 40.432 123.245 31.1573C114.688 21.9356 102.927 17.1316 94.6922 15.5186L94.5 16.5Z" fill="#3257C9"/>
</g>
</svg>
