<svg width="210" height="43" viewBox="0 0 210 43" fill="none" xmlns="http://www.w3.org/2000/svg">
<rect x="96" y="9" width="113" height="33" rx="16.5" fill="white" stroke="#FF555E" stroke-width="2"/>
<path d="M108.94 31.2C107.94 31.2 107.013 31.02 106.16 30.66C105.307 30.2867 104.56 29.7733 103.92 29.12C103.293 28.4667 102.807 27.7067 102.46 26.84C102.113 25.9733 101.94 25.0467 101.94 24.06C101.94 23.06 102.113 22.1267 102.46 21.26C102.807 20.3933 103.293 19.64 103.92 19C104.56 18.3467 105.3 17.84 106.14 17.48C106.993 17.1067 107.92 16.92 108.92 16.92C110.013 16.92 110.973 17.1067 111.8 17.48C112.627 17.8533 113.36 18.36 114 19L112.7 20.3C112.26 19.8067 111.72 19.42 111.08 19.14C110.453 18.86 109.733 18.72 108.92 18.72C108.187 18.72 107.513 18.8533 106.9 19.12C106.287 19.3733 105.753 19.74 105.3 20.22C104.847 20.7 104.493 21.2667 104.24 21.92C104 22.5733 103.88 23.2867 103.88 24.06C103.88 24.8333 104 25.5467 104.24 26.2C104.493 26.8533 104.847 27.42 105.3 27.9C105.753 28.38 106.287 28.7533 106.9 29.02C107.513 29.2733 108.187 29.4 108.92 29.4C109.787 29.4 110.54 29.26 111.18 28.98C111.82 28.6867 112.36 28.2933 112.8 27.8L114.1 29.08C113.46 29.7467 112.707 30.2667 111.84 30.64C110.987 31.0133 110.02 31.2 108.94 31.2ZM120.098 31.2C119.164 31.2 118.324 30.98 117.578 30.54C116.831 30.1 116.238 29.5067 115.798 28.76C115.358 28 115.138 27.1533 115.138 26.22C115.138 25.3 115.358 24.4733 115.798 23.74C116.238 22.9933 116.831 22.4 117.578 21.96C118.324 21.52 119.164 21.3 120.098 21.3C121.018 21.3 121.851 21.52 122.598 21.96C123.358 22.3867 123.958 22.9733 124.398 23.72C124.838 24.4667 125.058 25.3 125.058 26.22C125.058 27.1533 124.838 28 124.398 28.76C123.958 29.5067 123.358 30.1 122.598 30.54C121.851 30.98 121.018 31.2 120.098 31.2ZM120.098 29.46C120.698 29.46 121.231 29.32 121.698 29.04C122.164 28.76 122.531 28.38 122.798 27.9C123.064 27.4067 123.198 26.8467 123.198 26.22C123.198 25.6067 123.058 25.06 122.778 24.58C122.511 24.1 122.144 23.7267 121.678 23.46C121.224 23.18 120.698 23.04 120.098 23.04C119.498 23.04 118.964 23.18 118.498 23.46C118.031 23.7267 117.664 24.1 117.398 24.58C117.131 25.06 116.998 25.6067 116.998 26.22C116.998 26.8467 117.131 27.4067 117.398 27.9C117.664 28.38 118.031 28.76 118.498 29.04C118.964 29.32 119.498 29.46 120.098 29.46ZM133.806 31V25.46C133.806 24.74 133.579 24.1467 133.126 23.68C132.672 23.2133 132.086 22.98 131.366 22.98C130.886 22.98 130.459 23.0867 130.086 23.3C129.712 23.5133 129.419 23.8067 129.206 24.18C128.992 24.5533 128.886 24.98 128.886 25.46L128.146 25.04C128.146 24.32 128.306 23.68 128.626 23.12C128.946 22.56 129.392 22.12 129.966 21.8C130.539 21.4667 131.186 21.3 131.906 21.3C132.626 21.3 133.259 21.48 133.806 21.84C134.366 22.2 134.806 22.6733 135.126 23.26C135.446 23.8333 135.606 24.4467 135.606 25.1V31H133.806ZM127.086 31V21.5H128.886V31H127.086ZM141.063 31.2C140.529 31.2 140.023 31.1333 139.543 31C139.076 30.8533 138.643 30.6533 138.243 30.4C137.843 30.1333 137.496 29.82 137.203 29.46L138.363 28.3C138.709 28.7267 139.109 29.0467 139.563 29.26C140.016 29.46 140.523 29.56 141.083 29.56C141.643 29.56 142.076 29.4667 142.383 29.28C142.689 29.08 142.843 28.8067 142.843 28.46C142.843 28.1133 142.716 27.8467 142.463 27.66C142.223 27.46 141.909 27.3 141.523 27.18C141.136 27.0467 140.723 26.92 140.283 26.8C139.856 26.6667 139.449 26.5 139.063 26.3C138.676 26.1 138.356 25.8267 138.103 25.48C137.863 25.1333 137.743 24.6733 137.743 24.1C137.743 23.5267 137.883 23.0333 138.163 22.62C138.443 22.1933 138.829 21.8667 139.323 21.64C139.829 21.4133 140.436 21.3 141.143 21.3C141.889 21.3 142.549 21.4333 143.123 21.7C143.709 21.9533 144.189 22.34 144.563 22.86L143.403 24.02C143.136 23.6733 142.803 23.4067 142.403 23.22C142.016 23.0333 141.576 22.94 141.083 22.94C140.563 22.94 140.163 23.0333 139.883 23.22C139.616 23.3933 139.483 23.64 139.483 23.96C139.483 24.28 139.603 24.5267 139.843 24.7C140.083 24.8733 140.396 25.02 140.783 25.14C141.183 25.26 141.596 25.3867 142.023 25.52C142.449 25.64 142.856 25.8067 143.243 26.02C143.629 26.2333 143.943 26.52 144.183 26.88C144.436 27.24 144.563 27.7133 144.563 28.3C144.563 29.1933 144.243 29.9 143.603 30.42C142.976 30.94 142.129 31.2 141.063 31.2ZM148.038 31V17.52H149.838V31H148.038ZM145.698 23.14V21.5H152.178V23.14H145.698ZM153.941 31V21.5H155.741V31H153.941ZM155.741 25.58L155.061 25.28C155.061 24.0667 155.341 23.1 155.901 22.38C156.461 21.66 157.268 21.3 158.321 21.3C158.801 21.3 159.234 21.3867 159.621 21.56C160.008 21.72 160.368 21.9933 160.701 22.38L159.521 23.6C159.321 23.3867 159.101 23.2333 158.861 23.14C158.621 23.0467 158.341 23 158.021 23C157.354 23 156.808 23.2133 156.381 23.64C155.954 24.0667 155.741 24.7133 155.741 25.58ZM165.696 31.2C164.829 31.2 164.043 30.9867 163.336 30.56C162.629 30.12 162.069 29.5267 161.656 28.78C161.256 28.0333 161.056 27.1933 161.056 26.26C161.056 25.3267 161.256 24.4867 161.656 23.74C162.069 22.9933 162.623 22.4 163.316 21.96C164.023 21.52 164.816 21.3 165.696 21.3C166.416 21.3 167.056 21.4533 167.616 21.76C168.189 22.0533 168.649 22.4667 168.996 23C169.343 23.52 169.536 24.1267 169.576 24.82V27.68C169.536 28.36 169.343 28.9667 168.996 29.5C168.663 30.0333 168.209 30.4533 167.636 30.76C167.076 31.0533 166.429 31.2 165.696 31.2ZM165.996 29.5C166.889 29.5 167.609 29.2 168.156 28.6C168.703 27.9867 168.976 27.2067 168.976 26.26C168.976 25.6067 168.849 25.04 168.596 24.56C168.356 24.0667 168.009 23.6867 167.556 23.42C167.103 23.14 166.576 23 165.976 23C165.376 23 164.843 23.14 164.376 23.42C163.923 23.7 163.563 24.0867 163.296 24.58C163.043 25.06 162.916 25.6133 162.916 26.24C162.916 26.88 163.043 27.4467 163.296 27.94C163.563 28.42 163.929 28.8 164.396 29.08C164.863 29.36 165.396 29.5 165.996 29.5ZM168.856 31V28.44L169.196 26.12L168.856 23.82V21.5H170.676V31H168.856ZM173.317 31V21.5H175.117V31H173.317ZM174.217 19.6C173.883 19.6 173.61 19.4933 173.397 19.28C173.183 19.0533 173.077 18.7733 173.077 18.44C173.077 18.12 173.183 17.8533 173.397 17.64C173.61 17.4133 173.883 17.3 174.217 17.3C174.55 17.3 174.823 17.4133 175.037 17.64C175.25 17.8533 175.357 18.12 175.357 18.44C175.357 18.7733 175.25 19.0533 175.037 19.28C174.823 19.4933 174.55 19.6 174.217 19.6ZM184.489 31V25.46C184.489 24.74 184.263 24.1467 183.809 23.68C183.356 23.2133 182.769 22.98 182.049 22.98C181.569 22.98 181.143 23.0867 180.769 23.3C180.396 23.5133 180.103 23.8067 179.889 24.18C179.676 24.5533 179.569 24.98 179.569 25.46L178.829 25.04C178.829 24.32 178.989 23.68 179.309 23.12C179.629 22.56 180.076 22.12 180.649 21.8C181.223 21.4667 181.869 21.3 182.589 21.3C183.309 21.3 183.943 21.48 184.489 21.84C185.049 22.2 185.489 22.6733 185.809 23.26C186.129 23.8333 186.289 24.4467 186.289 25.1V31H184.489ZM177.769 31V21.5H179.569V31H177.769ZM190.069 31V17.52H191.869V31H190.069ZM187.729 23.14V21.5H194.209V23.14H187.729ZM198.797 31.2C198.264 31.2 197.757 31.1333 197.277 31C196.81 30.8533 196.377 30.6533 195.977 30.4C195.577 30.1333 195.23 29.82 194.937 29.46L196.097 28.3C196.444 28.7267 196.844 29.0467 197.297 29.26C197.75 29.46 198.257 29.56 198.817 29.56C199.377 29.56 199.81 29.4667 200.117 29.28C200.424 29.08 200.577 28.8067 200.577 28.46C200.577 28.1133 200.45 27.8467 200.197 27.66C199.957 27.46 199.644 27.3 199.257 27.18C198.87 27.0467 198.457 26.92 198.017 26.8C197.59 26.6667 197.184 26.5 196.797 26.3C196.41 26.1 196.09 25.8267 195.837 25.48C195.597 25.1333 195.477 24.6733 195.477 24.1C195.477 23.5267 195.617 23.0333 195.897 22.62C196.177 22.1933 196.564 21.8667 197.057 21.64C197.564 21.4133 198.17 21.3 198.877 21.3C199.624 21.3 200.284 21.4333 200.857 21.7C201.444 21.9533 201.924 22.34 202.297 22.86L201.137 24.02C200.87 23.6733 200.537 23.4067 200.137 23.22C199.75 23.0333 199.31 22.94 198.817 22.94C198.297 22.94 197.897 23.0333 197.617 23.22C197.35 23.3933 197.217 23.64 197.217 23.96C197.217 24.28 197.337 24.5267 197.577 24.7C197.817 24.8733 198.13 25.02 198.517 25.14C198.917 25.26 199.33 25.3867 199.757 25.52C200.184 25.64 200.59 25.8067 200.977 26.02C201.364 26.2333 201.677 26.52 201.917 26.88C202.17 27.24 202.297 27.7133 202.297 28.3C202.297 29.1933 201.977 29.9 201.337 30.42C200.71 30.94 199.864 31.2 198.797 31.2Z" fill="#FF555E"/>
<path d="M0.240191 7.84987C-0.118875 8.2695 -0.0697771 8.90076 0.349854 9.25983L7.18814 15.1111C7.60777 15.4702 8.23903 15.4211 8.59809 15.0015C8.95716 14.5818 8.90806 13.9506 8.48843 13.5915L2.40996 8.39035L7.61112 2.31188C7.97019 1.89225 7.92109 1.26099 7.50146 0.901924C7.08183 0.542858 6.45057 0.591956 6.09151 1.01159L0.240191 7.84987ZM94 22.5L94.3425 21.5605C55.7813 7.50174 16.0334 6.32773 0.922456 7.50303L1 8.50002L1.07754 9.49701C15.9666 8.33897 55.4187 9.49829 93.6575 23.4395L94 22.5Z" fill="#FF555E"/>
</svg>
