<svg width="147" height="39" viewBox="0 0 147 39" fill="none" xmlns="http://www.w3.org/2000/svg">
<path d="M48 1H17C8.16344 1 1 8.16344 1 17C1 25.8366 8.16344 33 17 33H48C56.8366 33 64 25.8366 64 17C64 8.16344 56.8366 1 48 1Z" fill="white" stroke="#FFDF2B" stroke-width="2"/>
<path d="M145.84 34.9404C146.359 34.7525 146.628 34.1792 146.44 33.6599L143.379 25.1965C143.191 24.6771 142.618 24.4084 142.099 24.5962C141.579 24.7841 141.311 25.3574 141.498 25.8767L144.219 33.3998L136.696 36.1208C136.177 36.3087 135.908 36.882 136.096 37.4014C136.284 37.9207 136.857 38.1895 137.377 38.0016L145.84 34.9404ZM64 16.5L63.9496 17.4987C103.421 19.4923 134.528 29.9611 145.076 34.9055L145.5 34L145.924 33.0945C135.139 28.0389 103.779 17.5077 64.0504 15.5013L64 16.5Z" fill="#FFDF2B"/>
<path d="M18.92 25.2C17.9467 25.2 17.0333 25.02 16.18 24.66C15.34 24.2867 14.6 23.7733 13.96 23.12C13.3333 22.4667 12.84 21.7067 12.48 20.84C12.12 19.9733 11.94 19.04 11.94 18.04C11.94 17.04 12.12 16.1133 12.48 15.26C12.84 14.3933 13.34 13.6333 13.98 12.98C14.62 12.3267 15.3667 11.82 16.22 11.46C17.0867 11.1 18.0267 10.92 19.04 10.92C20.1467 10.92 21.1667 11.1333 22.1 11.56C23.0333 11.9867 23.8133 12.6 24.44 13.4L23.14 14.7C22.7 14.06 22.12 13.5733 21.4 13.24C20.68 12.8933 19.8933 12.72 19.04 12.72C18.0267 12.72 17.1267 12.9467 16.34 13.4C15.5667 13.8533 14.96 14.48 14.52 15.28C14.0933 16.08 13.88 17 13.88 18.04C13.88 19.0933 14.1 20.02 14.54 20.82C14.98 21.62 15.5733 22.2467 16.32 22.7C17.0667 23.1533 17.92 23.38 18.88 23.38C19.8533 23.38 20.6933 23.1933 21.4 22.82C22.12 22.4467 22.6733 21.9 23.06 21.18C23.4467 20.4467 23.64 19.5533 23.64 18.5L24.78 19.32H18.78V17.6H25.58V17.88C25.58 19.4933 25.2933 20.8467 24.72 21.94C24.16 23.02 23.3733 23.8333 22.36 24.38C21.36 24.9267 20.2133 25.2 18.92 25.2ZM32.1288 25.2C31.1954 25.2 30.3554 24.98 29.6088 24.54C28.8621 24.1 28.2688 23.5067 27.8288 22.76C27.3888 22 27.1688 21.1533 27.1688 20.22C27.1688 19.3 27.3888 18.4733 27.8288 17.74C28.2688 16.9933 28.8621 16.4 29.6088 15.96C30.3554 15.52 31.1954 15.3 32.1288 15.3C33.0488 15.3 33.8821 15.52 34.6288 15.96C35.3888 16.3867 35.9888 16.9733 36.4288 17.72C36.8688 18.4667 37.0888 19.3 37.0888 20.22C37.0888 21.1533 36.8688 22 36.4288 22.76C35.9888 23.5067 35.3888 24.1 34.6288 24.54C33.8821 24.98 33.0488 25.2 32.1288 25.2ZM32.1288 23.46C32.7288 23.46 33.2621 23.32 33.7288 23.04C34.1954 22.76 34.5621 22.38 34.8288 21.9C35.0954 21.4067 35.2288 20.8467 35.2288 20.22C35.2288 19.6067 35.0888 19.06 34.8088 18.58C34.5421 18.1 34.1754 17.7267 33.7088 17.46C33.2554 17.18 32.7288 17.04 32.1288 17.04C31.5288 17.04 30.9954 17.18 30.5288 17.46C30.0621 17.7267 29.6954 18.1 29.4288 18.58C29.1621 19.06 29.0288 19.6067 29.0288 20.22C29.0288 20.8467 29.1621 21.4067 29.4288 21.9C29.6954 22.38 30.0621 22.76 30.5288 23.04C30.9954 23.32 31.5288 23.46 32.1288 23.46ZM43.1569 25.2C42.2902 25.2 41.5035 24.9867 40.7969 24.56C40.0902 24.12 39.5302 23.5267 39.1169 22.78C38.7169 22.0333 38.5169 21.1933 38.5169 20.26C38.5169 19.3267 38.7169 18.4867 39.1169 17.74C39.5302 16.9933 40.0835 16.4 40.7769 15.96C41.4835 15.52 42.2769 15.3 43.1569 15.3C43.8769 15.3 44.5169 15.4533 45.0769 15.76C45.6502 16.0533 46.1102 16.4667 46.4569 17C46.8035 17.52 46.9969 18.1267 47.0369 18.82V21.68C46.9969 22.36 46.8035 22.9667 46.4569 23.5C46.1235 24.0333 45.6702 24.4533 45.0969 24.76C44.5369 25.0533 43.8902 25.2 43.1569 25.2ZM43.4569 23.5C44.3502 23.5 45.0702 23.2 45.6169 22.6C46.1635 21.9867 46.4369 21.2067 46.4369 20.26C46.4369 19.6067 46.3102 19.04 46.0569 18.56C45.8169 18.0667 45.4702 17.6867 45.0169 17.42C44.5635 17.14 44.0369 17 43.4369 17C42.8369 17 42.3035 17.14 41.8369 17.42C41.3835 17.7 41.0235 18.0867 40.7569 18.58C40.5035 19.06 40.3769 19.6133 40.3769 20.24C40.3769 20.88 40.5035 21.4467 40.7569 21.94C41.0235 22.42 41.3902 22.8 41.8569 23.08C42.3235 23.36 42.8569 23.5 43.4569 23.5ZM46.3169 25V22.44L46.6569 20.12L46.3169 17.82V15.5H48.1369V25H46.3169ZM50.7575 25V10.72H52.5575V25H50.7575Z" fill="#FFDF2B"/>
</svg>
