<svg width="182" height="43" viewBox="0 0 182 43" fill="none" xmlns="http://www.w3.org/2000/svg">
<g id="callout-format">
<rect id="Rectangle 2" x="96" y="9" width="84" height="33" rx="16.5" fill="white" stroke="#FF555E" stroke-width="2"/>
<path id="Format" d="M105.64 31V17.12H107.52V31H105.64ZM106.92 24.9V23.18H114.16V24.9H106.92ZM106.92 18.84V17.12H114.5V18.84H106.92ZM120.598 31.2C119.664 31.2 118.824 30.98 118.078 30.54C117.331 30.1 116.738 29.5067 116.298 28.76C115.858 28 115.638 27.1533 115.638 26.22C115.638 25.3 115.858 24.4733 116.298 23.74C116.738 22.9933 117.331 22.4 118.078 21.96C118.824 21.52 119.664 21.3 120.598 21.3C121.518 21.3 122.351 21.52 123.098 21.96C123.858 22.3867 124.458 22.9733 124.898 23.72C125.338 24.4667 125.558 25.3 125.558 26.22C125.558 27.1533 125.338 28 124.898 28.76C124.458 29.5067 123.858 30.1 123.098 30.54C122.351 30.98 121.518 31.2 120.598 31.2ZM120.598 29.46C121.198 29.46 121.731 29.32 122.198 29.04C122.664 28.76 123.031 28.38 123.298 27.9C123.564 27.4067 123.698 26.8467 123.698 26.22C123.698 25.6067 123.558 25.06 123.278 24.58C123.011 24.1 122.644 23.7267 122.178 23.46C121.724 23.18 121.198 23.04 120.598 23.04C119.998 23.04 119.464 23.18 118.998 23.46C118.531 23.7267 118.164 24.1 117.898 24.58C117.631 25.06 117.498 25.6067 117.498 26.22C117.498 26.8467 117.631 27.4067 117.898 27.9C118.164 28.38 118.531 28.76 118.998 29.04C119.464 29.32 119.998 29.46 120.598 29.46ZM127.586 31V21.5H129.386V31H127.586ZM129.386 25.58L128.706 25.28C128.706 24.0667 128.986 23.1 129.546 22.38C130.106 21.66 130.912 21.3 131.966 21.3C132.446 21.3 132.879 21.3867 133.266 21.56C133.652 21.72 134.012 21.9933 134.346 22.38L133.166 23.6C132.966 23.3867 132.746 23.2333 132.506 23.14C132.266 23.0467 131.986 23 131.666 23C130.999 23 130.452 23.2133 130.026 23.64C129.599 24.0667 129.386 24.7133 129.386 25.58ZM135.652 31V21.5H137.452V31H135.652ZM142.072 31V25.26C142.072 24.5533 141.852 24 141.412 23.6C140.985 23.1867 140.445 22.98 139.792 22.98C139.352 22.98 138.959 23.0733 138.612 23.26C138.265 23.4467 137.985 23.7067 137.772 24.04C137.559 24.3733 137.452 24.7733 137.452 25.24L136.712 24.88C136.712 24.16 136.865 23.5333 137.172 23C137.492 22.4667 137.925 22.0533 138.472 21.76C139.019 21.4533 139.632 21.3 140.312 21.3C140.979 21.3 141.579 21.4467 142.112 21.74C142.659 22.0333 143.085 22.4467 143.392 22.98C143.712 23.5133 143.872 24.1467 143.872 24.88V31H142.072ZM148.492 31V25.26C148.492 24.5533 148.272 24 147.832 23.6C147.405 23.1867 146.872 22.98 146.232 22.98C145.792 22.98 145.392 23.0733 145.032 23.26C144.685 23.4467 144.405 23.7067 144.192 24.04C143.979 24.3733 143.872 24.7733 143.872 25.24L142.852 24.88C142.892 24.1467 143.085 23.52 143.432 23C143.792 22.4667 144.252 22.0533 144.812 21.76C145.372 21.4533 145.985 21.3 146.652 21.3C147.345 21.3 147.965 21.4467 148.512 21.74C149.059 22.0333 149.492 22.4467 149.812 22.98C150.145 23.5133 150.312 24.1533 150.312 24.9V31H148.492ZM156.801 31.2C155.935 31.2 155.148 30.9867 154.441 30.56C153.735 30.12 153.175 29.5267 152.761 28.78C152.361 28.0333 152.161 27.1933 152.161 26.26C152.161 25.3267 152.361 24.4867 152.761 23.74C153.175 22.9933 153.728 22.4 154.421 21.96C155.128 21.52 155.921 21.3 156.801 21.3C157.521 21.3 158.161 21.4533 158.721 21.76C159.295 22.0533 159.755 22.4667 160.101 23C160.448 23.52 160.641 24.1267 160.681 24.82V27.68C160.641 28.36 160.448 28.9667 160.101 29.5C159.768 30.0333 159.315 30.4533 158.741 30.76C158.181 31.0533 157.535 31.2 156.801 31.2ZM157.101 29.5C157.995 29.5 158.715 29.2 159.261 28.6C159.808 27.9867 160.081 27.2067 160.081 26.26C160.081 25.6067 159.955 25.04 159.701 24.56C159.461 24.0667 159.115 23.6867 158.661 23.42C158.208 23.14 157.681 23 157.081 23C156.481 23 155.948 23.14 155.481 23.42C155.028 23.7 154.668 24.0867 154.401 24.58C154.148 25.06 154.021 25.6133 154.021 26.24C154.021 26.88 154.148 27.4467 154.401 27.94C154.668 28.42 155.035 28.8 155.501 29.08C155.968 29.36 156.501 29.5 157.101 29.5ZM159.961 31V28.44L160.301 26.12L159.961 23.82V21.5H161.781V31H159.961ZM165.823 31V17.52H167.623V31H165.823ZM163.483 23.14V21.5H169.963V23.14H163.483Z" fill="#FF555E"/>
<path id="Vector 3" d="M0.240191 7.84986C-0.118875 8.26949 -0.0697771 8.90074 0.349854 9.25981L7.18814 15.1111C7.60777 15.4702 8.23903 15.4211 8.59809 15.0015C8.95716 14.5818 8.90806 13.9506 8.48843 13.5915L2.40996 8.39034L7.61112 2.31186C7.97019 1.89223 7.92109 1.26097 7.50146 0.901909C7.08183 0.542843 6.45057 0.591941 6.09151 1.01157L0.240191 7.84986ZM94 22.5L94.3425 21.5605C55.7813 7.50172 16.0334 6.32772 0.922456 7.50301L1 8.5L1.07754 9.49699C15.9666 8.33895 55.4187 9.49828 93.6575 23.4395L94 22.5Z" fill="#FF555E"/>
</g>
</svg>
