<svg width="160" height="36" viewBox="0 0 160 36" fill="none" xmlns="http://www.w3.org/2000/svg">
<path d="M0.5 34.5C0.5 35.0523 0.947715 35.5 1.5 35.5H10.5C11.0523 35.5 11.5 35.0523 11.5 34.5C11.5 33.9477 11.0523 33.5 10.5 33.5H2.5V25.5C2.5 24.9477 2.05228 24.5 1.5 24.5C0.947715 24.5 0.5 24.9477 0.5 25.5V34.5ZM65.5 16L65.5225 15.0002C29.6977 14.1952 7.51756 27.0682 0.792893 33.7929L1.5 34.5L2.20711 35.2071C8.48244 28.9318 30.1023 16.2048 65.4775 16.9997L65.5 16Z" fill="#3257C9"/>
<rect x="66" y="1" width="93" height="34" rx="17" fill="white" stroke="#3257C9" stroke-width="2"/>
<path d="M71.62 25L77.3 11.12H78.66L84.32 25H82.28L77.62 13.26H78.32L73.62 25H71.62ZM74.32 21.86V20.22H81.62V21.86H74.32ZM89.7142 25.2C88.9409 25.2 88.2409 25.0267 87.6142 24.68C87.0009 24.32 86.5209 23.8267 86.1742 23.2C85.8276 22.5733 85.6542 21.8467 85.6542 21.02V15.5H87.4542V20.94C87.4542 21.46 87.5409 21.9133 87.7142 22.3C87.9009 22.6733 88.1676 22.96 88.5142 23.16C88.8609 23.36 89.2676 23.46 89.7342 23.46C90.4409 23.46 90.9942 23.24 91.3942 22.8C91.7942 22.3467 91.9942 21.7267 91.9942 20.94V15.5H93.7942V21.02C93.7942 21.8467 93.6209 22.5733 93.2742 23.2C92.9276 23.8267 92.4476 24.32 91.8342 24.68C91.2342 25.0267 90.5276 25.2 89.7142 25.2ZM100.227 25.2C99.3467 25.2 98.5601 24.9867 97.8667 24.56C97.1734 24.12 96.6201 23.5267 96.2067 22.78C95.8067 22.0333 95.6067 21.1933 95.6067 20.26C95.6067 19.3267 95.8067 18.4867 96.2067 17.74C96.6201 16.9933 97.1734 16.4 97.8667 15.96C98.5601 15.52 99.3467 15.3 100.227 15.3C100.933 15.3 101.573 15.4533 102.147 15.76C102.72 16.0533 103.18 16.4667 103.527 17C103.887 17.52 104.087 18.1267 104.127 18.82V21.68C104.087 22.36 103.893 22.9667 103.547 23.5C103.2 24.0333 102.74 24.4533 102.167 24.76C101.593 25.0533 100.947 25.2 100.227 25.2ZM100.527 23.5C101.127 23.5 101.647 23.36 102.087 23.08C102.54 22.8 102.893 22.42 103.147 21.94C103.4 21.4467 103.527 20.8867 103.527 20.26C103.527 19.6067 103.393 19.04 103.127 18.56C102.873 18.08 102.52 17.7 102.067 17.42C101.627 17.14 101.107 17 100.507 17C99.9067 17 99.3801 17.14 98.9267 17.42C98.4734 17.7 98.1134 18.0867 97.8467 18.58C97.5934 19.06 97.4667 19.6133 97.4667 20.24C97.4667 20.88 97.5934 21.4467 97.8467 21.94C98.1134 22.42 98.4734 22.8 98.9267 23.08C99.3934 23.36 99.9267 23.5 100.527 23.5ZM105.227 25H103.407V22.44L103.747 20.12L103.407 17.82V10.72H105.227V25ZM107.867 25V15.5H109.667V25H107.867ZM108.767 13.6C108.434 13.6 108.161 13.4933 107.947 13.28C107.734 13.0533 107.627 12.7733 107.627 12.44C107.627 12.12 107.734 11.8533 107.947 11.64C108.161 11.4133 108.434 11.3 108.767 11.3C109.101 11.3 109.374 11.4133 109.587 11.64C109.801 11.8533 109.907 12.12 109.907 12.44C109.907 12.7733 109.801 13.0533 109.587 13.28C109.374 13.4933 109.101 13.6 108.767 13.6ZM116.72 25.2C115.773 25.2 114.92 24.9867 114.16 24.56C113.4 24.12 112.8 23.5267 112.36 22.78C111.92 22.0333 111.7 21.1867 111.7 20.24C111.7 19.3067 111.913 18.4667 112.34 17.72C112.78 16.9733 113.367 16.3867 114.1 15.96C114.847 15.52 115.68 15.3 116.6 15.3C117.48 15.3 118.253 15.5 118.92 15.9C119.6 16.3 120.127 16.8533 120.5 17.56C120.887 18.2667 121.08 19.0667 121.08 19.96C121.08 20.0933 121.073 20.24 121.06 20.4C121.047 20.5467 121.02 20.72 120.98 20.92H112.96V19.42H120.02L119.36 20C119.36 19.36 119.247 18.82 119.02 18.38C118.793 17.9267 118.473 17.58 118.06 17.34C117.647 17.0867 117.147 16.96 116.56 16.96C115.947 16.96 115.407 17.0933 114.94 17.36C114.473 17.6267 114.113 18 113.86 18.48C113.607 18.96 113.48 19.5267 113.48 20.18C113.48 20.8467 113.613 21.4333 113.88 21.94C114.147 22.4333 114.527 22.82 115.02 23.1C115.513 23.3667 116.08 23.5 116.72 23.5C117.253 23.5 117.74 23.4067 118.18 23.22C118.633 23.0333 119.02 22.7533 119.34 22.38L120.5 23.56C120.047 24.0933 119.487 24.5 118.82 24.78C118.167 25.06 117.467 25.2 116.72 25.2ZM129.763 25V19.46C129.763 18.74 129.536 18.1467 129.083 17.68C128.629 17.2133 128.043 16.98 127.323 16.98C126.843 16.98 126.416 17.0867 126.043 17.3C125.669 17.5133 125.376 17.8067 125.163 18.18C124.949 18.5533 124.843 18.98 124.843 19.46L124.103 19.04C124.103 18.32 124.263 17.68 124.583 17.12C124.903 16.56 125.349 16.12 125.923 15.8C126.496 15.4667 127.143 15.3 127.863 15.3C128.583 15.3 129.216 15.48 129.763 15.84C130.323 16.2 130.763 16.6733 131.083 17.26C131.403 17.8333 131.563 18.4467 131.563 19.1V25H129.763ZM123.043 25V15.5H124.843V25H123.043ZM138.34 25.2C137.406 25.2 136.56 24.98 135.8 24.54C135.053 24.1 134.46 23.5067 134.02 22.76C133.593 22 133.38 21.16 133.38 20.24C133.38 19.3067 133.593 18.4667 134.02 17.72C134.46 16.9733 135.053 16.3867 135.8 15.96C136.56 15.52 137.406 15.3 138.34 15.3C139.073 15.3 139.753 15.44 140.38 15.72C141.006 15.9867 141.546 16.38 142 16.9L140.8 18.1C140.506 17.7533 140.146 17.4933 139.72 17.32C139.306 17.1333 138.846 17.04 138.34 17.04C137.74 17.04 137.206 17.18 136.74 17.46C136.273 17.7267 135.906 18.1 135.64 18.58C135.373 19.06 135.24 19.6133 135.24 20.24C135.24 20.8667 135.373 21.42 135.64 21.9C135.906 22.38 136.273 22.76 136.74 23.04C137.206 23.32 137.74 23.46 138.34 23.46C138.846 23.46 139.306 23.3733 139.72 23.2C140.146 23.0133 140.513 22.7467 140.82 22.4L142 23.6C141.56 24.1067 141.02 24.5 140.38 24.78C139.753 25.06 139.073 25.2 138.34 25.2ZM147.99 25.2C147.043 25.2 146.19 24.9867 145.43 24.56C144.67 24.12 144.07 23.5267 143.63 22.78C143.19 22.0333 142.97 21.1867 142.97 20.24C142.97 19.3067 143.183 18.4667 143.61 17.72C144.05 16.9733 144.636 16.3867 145.37 15.96C146.116 15.52 146.95 15.3 147.87 15.3C148.75 15.3 149.523 15.5 150.19 15.9C150.87 16.3 151.396 16.8533 151.77 17.56C152.156 18.2667 152.35 19.0667 152.35 19.96C152.35 20.0933 152.343 20.24 152.33 20.4C152.316 20.5467 152.29 20.72 152.25 20.92H144.23V19.42H151.29L150.63 20C150.63 19.36 150.516 18.82 150.29 18.38C150.063 17.9267 149.743 17.58 149.33 17.34C148.916 17.0867 148.416 16.96 147.83 16.96C147.216 16.96 146.676 17.0933 146.21 17.36C145.743 17.6267 145.383 18 145.13 18.48C144.876 18.96 144.75 19.5267 144.75 20.18C144.75 20.8467 144.883 21.4333 145.15 21.94C145.416 22.4333 145.796 22.82 146.29 23.1C146.783 23.3667 147.35 23.5 147.99 23.5C148.523 23.5 149.01 23.4067 149.45 23.22C149.903 23.0333 150.29 22.7533 150.61 22.38L151.77 23.56C151.316 24.0933 150.756 24.5 150.09 24.78C149.436 25.06 148.736 25.2 147.99 25.2Z" fill="#3257C9"/>
</svg>
