<svg width="147" height="39" viewBox="0 0 147 39" fill="none" xmlns="http://www.w3.org/2000/svg">
<g id="callout-task">
<rect id="Rectangle 1" x="1" y="1" width="63" height="32" rx="16" fill="white" stroke="#FFDF2B" stroke-width="2"/>
<path id="Task" d="M17.32 24V10.52H19.2V24H17.32ZM12.6 11.84V10.12H23.9V11.84H12.6ZM27.2233 24.2C26.3566 24.2 25.5699 23.9867 24.8633 23.56C24.1566 23.12 23.5966 22.5267 23.1833 21.78C22.7833 21.0333 22.5833 20.1933 22.5833 19.26C22.5833 18.3267 22.7833 17.4867 23.1833 16.74C23.5966 15.9933 24.1499 15.4 24.8433 14.96C25.5499 14.52 26.3433 14.3 27.2233 14.3C27.9433 14.3 28.5833 14.4533 29.1433 14.76C29.7166 15.0533 30.1766 15.4667 30.5233 16C30.8699 16.52 31.0633 17.1267 31.1033 17.82V20.68C31.0633 21.36 30.8699 21.9667 30.5233 22.5C30.1899 23.0333 29.7366 23.4533 29.1633 23.76C28.6033 24.0533 27.9566 24.2 27.2233 24.2ZM27.5233 22.5C28.4166 22.5 29.1366 22.2 29.6833 21.6C30.2299 20.9867 30.5033 20.2067 30.5033 19.26C30.5033 18.6067 30.3766 18.04 30.1233 17.56C29.8833 17.0667 29.5366 16.6867 29.0833 16.42C28.6299 16.14 28.1033 16 27.5033 16C26.9033 16 26.3699 16.14 25.9033 16.42C25.4499 16.7 25.0899 17.0867 24.8233 17.58C24.5699 18.06 24.4433 18.6133 24.4433 19.24C24.4433 19.88 24.5699 20.4467 24.8233 20.94C25.0899 21.42 25.4566 21.8 25.9233 22.08C26.3899 22.36 26.9233 22.5 27.5233 22.5ZM30.3833 24V21.44L30.7233 19.12L30.3833 16.82V14.5H32.2033V24H30.3833ZM37.8439 24.2C37.3106 24.2 36.8039 24.1333 36.3239 24C35.8572 23.8533 35.4239 23.6533 35.0239 23.4C34.6239 23.1333 34.2772 22.82 33.9839 22.46L35.1439 21.3C35.4906 21.7267 35.8906 22.0467 36.3439 22.26C36.7972 22.46 37.3039 22.56 37.8639 22.56C38.4239 22.56 38.8572 22.4667 39.1639 22.28C39.4706 22.08 39.6239 21.8067 39.6239 21.46C39.6239 21.1133 39.4972 20.8467 39.2439 20.66C39.0039 20.46 38.6906 20.3 38.3039 20.18C37.9172 20.0467 37.5039 19.92 37.0639 19.8C36.6372 19.6667 36.2306 19.5 35.8439 19.3C35.4572 19.1 35.1372 18.8267 34.8839 18.48C34.6439 18.1333 34.5239 17.6733 34.5239 17.1C34.5239 16.5267 34.6639 16.0333 34.9439 15.62C35.2239 15.1933 35.6106 14.8667 36.1039 14.64C36.6106 14.4133 37.2172 14.3 37.9239 14.3C38.6706 14.3 39.3306 14.4333 39.9039 14.7C40.4906 14.9533 40.9706 15.34 41.3439 15.86L40.1839 17.02C39.9172 16.6733 39.5839 16.4067 39.1839 16.22C38.7972 16.0333 38.3572 15.94 37.8639 15.94C37.3439 15.94 36.9439 16.0333 36.6639 16.22C36.3972 16.3933 36.2639 16.64 36.2639 16.96C36.2639 17.28 36.3839 17.5267 36.6239 17.7C36.8639 17.8733 37.1772 18.02 37.5639 18.14C37.9639 18.26 38.3772 18.3867 38.8039 18.52C39.2306 18.64 39.6372 18.8067 40.0239 19.02C40.4106 19.2333 40.7239 19.52 40.9639 19.88C41.2172 20.24 41.3439 20.7133 41.3439 21.3C41.3439 22.1933 41.0239 22.9 40.3839 23.42C39.7572 23.94 38.9106 24.2 37.8439 24.2ZM49.4391 24L44.9991 19.14L49.3991 14.5H51.5791L46.6791 19.62L46.7591 18.58L51.7591 24H49.4391ZM43.3591 24V9.72H45.1591V24H43.3591Z" fill="#FFDF2B"/>
<path id="Vector 2" d="M145.84 34.9404C146.359 34.7525 146.628 34.1792 146.44 33.6599L143.379 25.1965C143.191 24.6771 142.618 24.4084 142.099 24.5962C141.579 24.7841 141.311 25.3574 141.498 25.8767L144.219 33.3998L136.696 36.1208C136.177 36.3087 135.908 36.882 136.096 37.4014C136.284 37.9207 136.857 38.1895 137.377 38.0016L145.84 34.9404ZM64 16.5L63.9496 17.4987C103.421 19.4923 134.528 29.9611 145.076 34.9055L145.5 34L145.924 33.0945C135.139 28.0389 103.779 17.5077 64.0504 15.5013L64 16.5Z" fill="#FFDF2B"/>
</g>
</svg>
